#tb 0: 1001/30000
0,          0,          0,        1,   614400, 0x088c51de
0,          1,          1,        1,   614400, 0x93fff662
0,          2,          2,        1,   614400, 0x90ba6c28
0,          3,          3,        1,   614400, 0x55b7ae46
0,          4,          4,        1,   614400, 0xef4fc678
0,          5,          5,        1,   614400, 0xc838a54c
0,          6,          6,        1,   614400, 0xb6016823
0,          7,          7,        1,   614400, 0x7fd65ea7
0,          8,          8,        1,   614400, 0xca9c35b9
0,          9,          9,        1,   614400, 0x33f902ee
0,         10,         10,        1,   614400, 0x53f2ea7a
0,         11,         11,        1,   614400, 0x3ecae1c7
0,         12,         12,        1,   614400, 0x2d8fd7cc
0,         13,         13,        1,   614400, 0xd9dfc2ef
0,         14,         14,        1,   614400, 0xaf95cef0
0,         15,         15,        1,   614400, 0x6dcf5ed6
